<svg width="39" height="39" viewBox="0 0 39 39" fill="none" xmlns="http://www.w3.org/2000/svg">
<path d="M39 36.0508L27.8563 24.9071C29.7437 22.0628 30.6947 18.6996 30.5762 15.2881C30.5762 5.71498 24.8613 0 15.2881 0C5.71498 0 0 5.71498 0 15.2881C0 24.8613 5.71498 30.5762 15.2881 30.5762C18.7001 30.695 22.0638 29.744 24.9085 27.8563L36.0522 39L39 36.0508ZM4.16949 15.2881C4.16949 8.01515 8.01515 4.16949 15.2881 4.16949C22.5611 4.16949 26.4068 8.01515 26.4068 15.2881C26.4068 22.5611 22.5611 26.4068 15.2881 26.4068C8.01515 26.4068 4.16949 22.5611 4.16949 15.2881Z" fill="white"/>
</svg>
